<?xml version="1.0" encoding="utf-8"?>
<svg viewBox="31.966 22.967 387.99 99.308" xmlns="http://www.w3.org/2000/svg">
  <g transform="matrix(0.467864, 0, 0, 0.467864, 16.639692, -2168.080811)" id="g1180" style="">
    <path style="display:inline;opacity:1;fill:#ffffff;stroke-width:0.999997;stop-opacity:1" id="path1048" class="st5" d="m 240.00558,4830.6424 v 43.0052 c 0,11.8634 9.5984,21.5415 21.53787,21.5415 0,0 0,0 0,0 h 21.38181 v -10.8488 h -21.38181 c -5.93071,0 -10.6909,-4.761 -10.6909,-10.6927 0,0 0,-0.078 0,-0.078 0.078,-14.283 0.078,-28.566 0.078,-42.9271 z m 82.01559,0 c -20.36733,0 -32.38483,11.0049 -32.38483,32.2343 0,21.2295 11.86143,32.0783 32.38483,32.2344 h 10.37877 v -10.8489 h -10.37877 c -8.81803,0.1562 -21.53787,-2.1853 -21.53787,-21.3855 0,-19.2001 11.86144,-21.3855 21.53787,-21.3855 h 21.22574 v 53.8541 h 10.84696 v -64.7029 z m 42.91967,0 v 10.8488 h 26.92234 v 53.8541 h 10.84698 v -53.8541 h 26.92235 v -10.8488 z m 75.53863,0 v 64.7029 h 10.84697 v -64.7029 z m 54.3129,0 c -20.91358,0 -32.38484,11.0049 -32.61895,32.3904 v 32.2345 h 10.84697 v -32.2345 c 0,-14.9074 6.86715,-21.5416 21.69395,-21.5416 14.90483,0 21.69395,6.5562 21.69395,21.5416 v 32.0783 h 10.84697 v -32.0783 c 0,-20.8392 -11.5493,-32.3904 -32.46289,-32.3904 z m 43.30985,0 v 32.6246 c -0.46821,17.2489 6.16483,31.9221 21.53788,31.9221 7.33537,0 12.71983,-3.5122 16.07536,-8.5073 3.51161,5.1513 9.20822,8.5073 16.07537,8.5073 14.67072,0 21.53788,-12.722 21.53788,-31.9221 v -32.6246 h -10.84698 v 33.2489 c 0,7.3367 -1.17054,20.5271 -10.6909,20.5271 -9.52037,0 -10.53483,-12.8782 -10.6909,-20.5271 v -33.2489 h -10.84696 v 33.2489 c -0.15608,8.0392 -1.17054,20.5271 -10.6909,20.5271 -9.52036,0 -10.6909,-13.3465 -10.6909,-20.5271 v -33.2489 z m 86.07346,0 v 64.7029 h 10.84697 v -64.7029 z m 54.3129,0 c -20.36734,0 -32.38485,10.8488 -32.61895,32.3904 v 32.2345 h 10.84696 v -32.2345 c -0.31213,-14.9074 7.1793,-21.5416 21.69395,-21.5416 14.51466,0 21.69395,6.1659 21.69395,21.5416 v 32.0783 h 10.84697 v -32.0783 c 0.078,-21.5416 -12.09555,-32.3904 -32.46288,-32.3904 z m 75.6947,0 c -20.52341,0 -32.38485,11.2391 -32.38485,32.2343 0,21.0734 11.86144,32.0783 32.38485,32.2344 h 32.22878 v -32.2344 h -10.84698 v 21.3855 h -21.3818 c -14.90483,0.3123 -21.53787,-6.8683 -21.53787,-21.3855 0,-14.6733 6.86714,-21.3855 21.53787,-21.3855 h 32.07271 v -10.8488 z m 76.55308,0 c -16.23144,0 -33.24323,3.8244 -33.39931,21.5415 v 10.8489 h 28.09288 c 8.66197,0.1562 25.7518,-0.4683 25.7518,10.6928 0,11.0049 -16.38751,10.6928 -25.7518,10.6928 h -28.09288 v 10.8489 h 34.41378 c 10.84697,0 30.7461,-3.8245 30.27788,-21.5417 -0.46822,-17.7172 -17.87019,-21.5417 -30.27788,-21.5417 h -23.5668 c 0,-11.3951 18.02626,-10.6927 25.7518,-10.6927 h 28.09288 v -10.8488 z"/>
    <g transform="matrix(0.96199502,0,0,0.96199502,-111.54212,4538.7881)" style="opacity:1;fill:#ffffff;stroke-width:1.03951;stop-opacity:1" id="g1169">
      <path style="fill:#ffffff;stroke-width:1.03951" id="path1159" class="st0" d="m 150,150 c 12.9,34.7 58.4,75.4 97.1,97.5 40.6,23.2 94.6,35.7 94.6,79.1 C 321,282.3 271.6,281.9 234.9,259.6 185.7,229.7 150,185.3 150,150 Z"/>
      <path style="fill:#ffffff;stroke-width:1.03951" id="path1161" class="st1" d="m 156.8,229.3 c 17.2,16.5 55,43.4 88.4,53.6 33.3,10.1 82.5,15.5 89.3,52.9 C 319,303.6 269.1,304 239,294.5 205.6,284 169,252.3 156.8,229.3 Z"/>
      <path style="fill:#ffffff;stroke-width:1.03951" id="path1163" class="st2" d="m 167.7,267.5 c 24.8,26.4 49.5,36.3 78.3,40.6 39.1,5.8 73.1,11 82.7,33.6 -21,-20.9 -57.4,-17.9 -85.7,-22.1 -32.7,-4.9 -60.3,-22.5 -75.3,-52.1 z"/>
      <path style="fill:#ffffff;stroke-width:1.03951" id="path1165" class="st3" d="m 205.2,323.7 c 20.1,10.3 40.1,10.2 61.7,10.2 9.5,0 45.9,-2.4 55.1,16.6 -20.6,-12.7 -36.3,-3.9 -56.9,-3.9 C 236,346.5 215.8,336 205.2,323.7 Z"/>
      <path style="fill:#ffffff;stroke-width:1.03951" id="path1167" class="st4" d="m 318.7,357 c -2.5,-3.1 -8.2,-6.2 -14.9,-6.2 -5.5,0 -12.2,2.3 -21.6,6.4 -11.5,5 -24,7.6 -36.3,6.7 1.8,3.1 10.5,6.5 20.8,6.5 7.8,0 16.6,-2.9 21.4,-5.7 10.2,-5.9 17.1,-9.7 30.6,-7.7 z"/>
    </g>
  </g>
</svg>